<svg width="150" height="150" viewBox="0 0 150 150" fill="none" xmlns="http://www.w3.org/2000/svg">
<path d="M25.1677 24.1611V0H49.3288V24.1611H25.1677Z" fill="#F8F8F8"/>
<path d="M75.5034 24.1611V0H99.6645V24.1611H75.5034Z" fill="#F8F8F8"/>
<path d="M0 49.3289V25.1678H24.1611V49.3289H0Z" fill="#F8F8F8"/>
<path d="M50.3354 49.3289V25.1678H74.4965V49.3289H50.3354Z" fill="#F8F8F8"/>
<path d="M25.1677 74.4966V50.3356H49.3288V74.4966H25.1677Z" fill="#F8F8F8"/>
<path d="M75.5034 74.4966V50.3356H99.6645V74.4966H75.5034Z" fill="#F8F8F8"/>
<path d="M0 99.6644V75.5034H24.1611V99.6644H0Z" fill="#F8F8F8"/>
<path d="M50.3354 99.6644V75.5034H74.4965V99.6644H50.3354Z" fill="#F8F8F8"/>
<path d="M25.1677 124.832V100.671H49.3288V124.832H25.1677Z" fill="#F8F8F8"/>
<path d="M75.5034 124.832V100.671H99.6645V124.832H75.5034Z" fill="#F8F8F8"/>
<path d="M125.839 24.1611V0H150V24.1611H125.839Z" fill="#F8F8F8"/>
<path d="M125.839 74.4966V50.3356H150V74.4966H125.839Z" fill="#F8F8F8"/>
<path d="M125.839 124.832V100.671H150V124.832H125.839Z" fill="#F8F8F8"/>
<path d="M100.671 49.3289V25.1678H124.832V49.3289H100.671Z" fill="#F8F8F8"/>
<path d="M0 150V125.839H24.1611V150H0Z" fill="#F8F8F8"/>
<path d="M50.3354 150V125.839H74.4965V150H50.3354Z" fill="#F8F8F8"/>
<path d="M100.671 150V125.839H124.832V150H100.671Z" fill="#F8F8F8"/>
<path d="M100.671 99.6644V75.5034H124.832V99.6644H100.671Z" fill="#F8F8F8"/>
</svg>
