<svg width="30" height="33" viewBox="0 0 30 33" fill="none" xmlns="http://www.w3.org/2000/svg">
<g filter="url(#filter0_d_38_131)">
<path d="M25.15 16.3769V13.0651C25.15 12.0039 24.9138 10.956 24.4585 9.99748L23.6148 8.22118C23.1758 7.29687 22.4897 6.51198 21.6324 5.9533C19.7264 4.71124 17.2553 4.7586 15.3983 6.07277L15 6.35468L14.6205 6.08611C12.7592 4.76887 10.2743 4.7507 8.39393 6.04057C7.65962 6.54428 7.06003 7.22036 6.64768 8.0096L5.66282 9.89461C5.12887 10.9166 4.85 12.0525 4.85 13.2056V16.2317C4.85 17.4338 5.15312 18.6166 5.73134 19.6706L6.39193 20.8748C6.9734 21.9347 7.81414 22.8299 8.83555 23.4766L9.14905 23.6751C10.6555 24.629 12.464 24.9856 14.2197 24.675L15 24.5369L15.8707 24.691C17.5709 24.9918 19.3225 24.6672 20.802 23.7772L21.157 23.5636C22.322 22.8628 23.2631 21.8444 23.8699 20.6278L24.3984 19.568C24.8927 18.5768 25.15 17.4845 25.15 16.3769Z" fill="url(#paint0_radial_38_131)" stroke="black" stroke-width="0.3"/>
<path d="M15.0467 4.60058L15 4.69245L16.875 4.07693L16.9848 4.0499C18.3884 3.70439 19.375 2.44552 19.375 1L18.7229 1.25681C17.1298 1.88426 15.8219 3.07388 15.0467 4.60058Z" fill="#1EC12E" stroke="black" stroke-width="0.1"/>
<path d="M15 6.53846C15.4574 3.81482 13.8018 3.94642 13.125 2.84619" stroke="black" stroke-width="0.1"/>
</g>
<defs>
<filter id="filter0_d_38_131" x="0.699951" y="0.926575" width="28.6001" height="32.0237" filterUnits="userSpaceOnUse" color-interpolation-filters="sRGB">
<feFlood flood-opacity="0" result="BackgroundImageFix"/>
<feColorMatrix in="SourceAlpha" type="matrix" values="0 0 0 0 0 0 0 0 0 0 0 0 0 0 0 0 0 0 127 0" result="hardAlpha"/>
<feOffset dy="4"/>
<feGaussianBlur stdDeviation="2"/>
<feComposite in2="hardAlpha" operator="out"/>
<feColorMatrix type="matrix" values="0 0 0 0 0 0 0 0 0 0 0 0 0 0 0 0 0 0 0.25 0"/>
<feBlend mode="normal" in2="BackgroundImageFix" result="effect1_dropShadow_38_131"/>
<feBlend mode="normal" in="SourceGraphic" in2="effect1_dropShadow_38_131" result="shape"/>
</filter>
<radialGradient id="paint0_radial_38_131" cx="0" cy="0" r="1" gradientUnits="userSpaceOnUse" gradientTransform="translate(19.375 11.4615) rotate(112.109) scale(13.2846 12.6435)">
<stop stop-color="#FB8787"/>
<stop offset="0.270833" stop-color="#E86A6A"/>
<stop offset="1" stop-color="#C02020"/>
</radialGradient>
</defs>
</svg>
