<svg width="26" height="27" viewBox="0 0 26 27" fill="none" xmlns="http://www.w3.org/2000/svg">
<g filter="url(#filter0_d_15_3)">
<path d="M21 10.7074V8.57679C21 7.55199 20.775 6.53969 20.3409 5.61139L20.0955 5.08666C19.5497 3.91961 18.6924 2.92583 17.618 2.21476L17.5394 2.1627C16.3936 1.40437 15.0499 1 13.6759 1H12.4154C10.9845 1 9.58798 1.4385 8.41393 2.25644L8.34044 2.30764C7.4031 2.96067 6.63983 3.83319 6.11724 4.84904L5.77536 5.51363C5.26581 6.50412 5 7.60191 5 8.71578V10.5636C5 11.7252 5.28904 12.8684 5.84106 13.8904L6.05642 14.2891C6.61834 15.3294 7.43461 16.2104 8.42908 16.8499L8.48765 16.8876C9.61695 17.6139 10.9313 18 12.2739 18H13.8135C15.1013 18 16.364 17.6448 17.4629 16.9734L17.524 16.9361C18.6584 16.243 19.572 15.2413 20.158 14.0481L20.2833 13.7928C20.7548 12.8326 21 11.7771 21 10.7074Z" fill="#CF2F2F"/>
<path d="M21 10.7074V8.57679C21 7.55199 20.775 6.53969 20.3409 5.61139L20.0955 5.08666C19.5497 3.91961 18.6924 2.92583 17.618 2.21476L17.5394 2.1627C16.3936 1.40437 15.0499 1 13.6759 1H12.4154C10.9845 1 9.58798 1.4385 8.41393 2.25644L8.34044 2.30764C7.4031 2.96067 6.63983 3.83319 6.11724 4.84904L5.77536 5.51363C5.26581 6.50412 5 7.60191 5 8.71578V10.5636C5 11.7252 5.28904 12.8684 5.84106 13.8904L6.05642 14.2891C6.61834 15.3294 7.43461 16.2104 8.42908 16.8499L8.48765 16.8876C9.61695 17.6139 10.9313 18 12.2739 18H13.8135C15.1013 18 16.364 17.6448 17.4629 16.9734L17.524 16.9361C18.6584 16.243 19.572 15.2413 20.158 14.0481L20.2833 13.7928C20.7548 12.8326 21 11.7771 21 10.7074Z" stroke="black"/>
</g>
<defs>
<filter id="filter0_d_15_3" x="0.5" y="0.5" width="25" height="26" filterUnits="userSpaceOnUse" color-interpolation-filters="sRGB">
<feFlood flood-opacity="0" result="BackgroundImageFix"/>
<feColorMatrix in="SourceAlpha" type="matrix" values="0 0 0 0 0 0 0 0 0 0 0 0 0 0 0 0 0 0 127 0" result="hardAlpha"/>
<feOffset dy="4"/>
<feGaussianBlur stdDeviation="2"/>
<feComposite in2="hardAlpha" operator="out"/>
<feColorMatrix type="matrix" values="0 0 0 0 0 0 0 0 0 0 0 0 0 0 0 0 0 0 0.25 0"/>
<feBlend mode="normal" in2="BackgroundImageFix" result="effect1_dropShadow_15_3"/>
<feBlend mode="normal" in="SourceGraphic" in2="effect1_dropShadow_15_3" result="shape"/>
</filter>
</defs>
</svg>
