<svg width="142" height="29" viewBox="0 0 142 29" fill="none" xmlns="http://www.w3.org/2000/svg">
<path d="M132.219 1L131.718 1.19349C130.329 1.72966 129.185 2.75529 128.5 4.07704L130.094 3.56411L130.225 3.5325C131.395 3.25019 132.219 2.20339 132.219 1Z" fill="#1EC12E" stroke="black" stroke-width="0.1"/>
<path d="M85 22V2H105V22H85Z" fill="url(#paint0_radial_39_132)" stroke="black" stroke-width="0.3"/>
<path d="M1 22V2H21V22H1Z" fill="url(#paint1_radial_39_132)" stroke="black" stroke-width="0.3"/>
<path d="M22 22V2H42V22H22Z" fill="url(#paint2_radial_39_132)" stroke="black" stroke-width="0.3"/>
<path d="M43 22V2H63V22H43Z" fill="url(#paint3_radial_39_132)" stroke="black" stroke-width="0.3"/>
<path d="M64 22V2H84V22H64Z" fill="url(#paint4_radial_39_132)" stroke="black" stroke-width="0.3"/>
<g filter="url(#filter0_d_39_132)">
<path d="M137 13.5099V11.3457C137 10.2885 136.761 9.24506 136.3 8.29366L135.722 7.10143C135.349 6.33235 134.771 5.68162 134.051 5.22153C132.48 4.21769 130.459 4.25613 128.927 5.31898L128.5 5.61537L128.09 5.33059C126.554 4.26533 124.523 4.25058 122.972 5.29343C122.355 5.70825 121.85 6.26828 121.5 6.92427L120.822 8.19598C120.282 9.20929 120 10.3399 120 11.4881V13.3627C120 14.5596 120.307 15.7364 120.891 16.7809L121.217 17.3634C121.752 18.3191 122.521 19.1235 123.451 19.7012C124.799 20.5378 126.407 20.8502 127.97 20.5791L128.5 20.4872L129.099 20.591C130.621 20.855 132.187 20.5691 133.518 19.7845C134.585 19.1549 135.451 18.2337 136.013 17.1291L136.239 16.6837C136.739 15.7005 137 14.613 137 13.5099Z" fill="url(#paint5_radial_39_132)"/>
<path d="M137.15 13.5099V11.3457C137.15 10.2658 136.905 9.20005 136.435 8.22827L135.857 7.03603C135.472 6.24199 134.875 5.57015 134.132 5.09512C132.509 4.05871 130.423 4.09839 128.842 5.19574L128.5 5.4328L128.175 5.20735C126.589 4.10687 124.49 4.09163 122.888 5.16896C122.251 5.59749 121.729 6.17605 121.368 6.85372L120.69 8.12543C120.139 9.16046 119.85 10.3153 119.85 11.4881V13.3627C119.85 14.5852 120.163 15.7873 120.76 16.8542L121.086 17.4366C121.634 18.4145 122.42 19.2376 123.372 19.8286C124.751 20.6846 126.396 21.0043 127.995 20.7269L128.5 20.6394L129.073 20.7388C130.63 21.0089 132.233 20.7164 133.594 19.9137C134.686 19.2696 135.571 18.3272 136.146 17.1971L136.373 16.7517C136.884 15.7475 137.15 14.6367 137.15 13.5099Z" stroke="black" stroke-width="0.3"/>
</g>
<path d="M128.5 5.61534C128.889 3.34564 127.482 3.45531 126.906 2.53845" stroke="black" stroke-width="0.1"/>
<defs>
<filter id="filter0_d_39_132" x="115.7" y="4.19446" width="25.6001" height="24.7924" filterUnits="userSpaceOnUse" color-interpolation-filters="sRGB">
<feFlood flood-opacity="0" result="BackgroundImageFix"/>
<feColorMatrix in="SourceAlpha" type="matrix" values="0 0 0 0 0 0 0 0 0 0 0 0 0 0 0 0 0 0 127 0" result="hardAlpha"/>
<feOffset dy="4"/>
<feGaussianBlur stdDeviation="2"/>
<feComposite in2="hardAlpha" operator="out"/>
<feColorMatrix type="matrix" values="0 0 0 0 0 0 0 0 0 0 0 0 0 0 0 0 0 0 0.25 0"/>
<feBlend mode="normal" in2="BackgroundImageFix" result="effect1_dropShadow_39_132"/>
<feBlend mode="normal" in="SourceGraphic" in2="effect1_dropShadow_39_132" result="shape"/>
</filter>
<radialGradient id="paint0_radial_39_132" cx="0" cy="0" r="1" gradientUnits="userSpaceOnUse" gradientTransform="translate(95 12) rotate(90) scale(36.875 22.8861)">
<stop stop-color="#00FF1A"/>
<stop offset="0.411458" stop-color="#083C0D"/>
</radialGradient>
<radialGradient id="paint1_radial_39_132" cx="0" cy="0" r="1" gradientUnits="userSpaceOnUse" gradientTransform="translate(11 12) rotate(90) scale(36.875 22.8861)">
<stop stop-color="#1EC12E"/>
<stop offset="0.411458" stop-color="#083C0D"/>
</radialGradient>
<radialGradient id="paint2_radial_39_132" cx="0" cy="0" r="1" gradientUnits="userSpaceOnUse" gradientTransform="translate(32 12) rotate(90) scale(36.875 22.8861)">
<stop stop-color="#1EC12E"/>
<stop offset="0.411458" stop-color="#083C0D"/>
</radialGradient>
<radialGradient id="paint3_radial_39_132" cx="0" cy="0" r="1" gradientUnits="userSpaceOnUse" gradientTransform="translate(53 12) rotate(90) scale(36.875 22.8861)">
<stop stop-color="#1EC12E"/>
<stop offset="0.411458" stop-color="#083C0D"/>
</radialGradient>
<radialGradient id="paint4_radial_39_132" cx="0" cy="0" r="1" gradientUnits="userSpaceOnUse" gradientTransform="translate(74 12) rotate(90) scale(36.875 22.8861)">
<stop stop-color="#1EC12E"/>
<stop offset="0.411458" stop-color="#083C0D"/>
</radialGradient>
<radialGradient id="paint5_radial_39_132" cx="0" cy="0" r="1" gradientUnits="userSpaceOnUse" gradientTransform="translate(132.219 9.71793) rotate(112.508) scale(11.1021 10.7164)">
<stop stop-color="#FB8787"/>
<stop offset="0.270833" stop-color="#E86A6A"/>
<stop offset="1" stop-color="#C02020"/>
</radialGradient>
</defs>
</svg>
